<?xml version="1.0" encoding="utf-8" standalone="no"?>
<!DOCTYPE svg PUBLIC "-//W3C//DTD SVG 1.1//EN"
  "http://www.w3.org/Graphics/SVG/1.1/DTD/svg11.dtd">
<svg xmlns:xlink="http://www.w3.org/1999/xlink" width="622.96875pt" height="614.425pt" viewBox="0 0 622.96875 614.425" xmlns="http://www.w3.org/2000/svg" version="1.1">
 <metadata>
  <rdf:RDF xmlns:dc="http://purl.org/dc/elements/1.1/" xmlns:cc="http://creativecommons.org/ns#" xmlns:rdf="http://www.w3.org/1999/02/22-rdf-syntax-ns#">
   <cc:Work>
    <dc:type rdf:resource="http://purl.org/dc/dcmitype/StillImage"/>
    <dc:date>2026-04-22T14:55:20.161913</dc:date>
    <dc:format>image/svg+xml</dc:format>
    <dc:creator>
     <cc:Agent>
      <dc:title>Matplotlib v3.9.4, https://matplotlib.org/</dc:title>
     </cc:Agent>
    </dc:creator>
   </cc:Work>
  </rdf:RDF>
 </metadata>
 <defs>
  <style type="text/css">*{stroke-linejoin: round; stroke-linecap: butt}</style>
 </defs>
 <g id="figure_1">
  <g id="patch_1">
   <path d="M 0 614.425 
L 622.96875 614.425 
L 622.96875 0 
L 0 0 
z
" style="fill: #ffffff"/>
  </g>
  <g id="axes_1">
   <g id="patch_2">
    <path d="M 57.76875 561.6 
L 615.76875 561.6 
L 615.76875 7.2 
L 57.76875 7.2 
z
" style="fill: #ffffff"/>
   </g>
   <g id="matplotlib.axis_1">
    <g id="xtick_1">
     <g id="line2d_1">
      <path d="M 197.26875 561.6 
L 197.26875 7.2 
" clip-path="url(#p2810f059d3)" style="fill: none; stroke: #cccccc; stroke-opacity: 0.25; stroke-width: 0.75; stroke-linecap: round"/>
     </g>
     <g id="line2d_2">
      <defs>
       <path id="mf2f36098d6" d="M 0 0 
L 0 -8 
" style="stroke: #262626; stroke-width: 1.25"/>
      </defs>
      <g>
       <use xlink:href="#mf2f36098d6" x="197.26875" y="561.6" style="fill: #262626; stroke: #262626; stroke-width: 1.25"/>
      </g>
     </g>
     <g id="text_1">
      <!-- 0 -->
      <g style="fill: #262626" transform="translate(191.267188 580.1) scale(0.2 -0.2)">
       <defs>
        <path id="RobotoMonoNFM-Rg-30" d="M 3400 1741 
L 3400 2806 
Q 3400 3241 3300 3577 
Q 3200 3913 3013 4144 
Q 2822 4375 2548 4495 
Q 2275 4616 1925 4616 
Q 1578 4616 1304 4495 
Q 1031 4375 844 4144 
Q 653 3913 553 3577 
Q 453 3241 453 2806 
L 453 1741 
Q 453 1306 553 970 
Q 653 634 844 406 
Q 1034 172 1309 54 
Q 1584 -63 1931 -63 
Q 2281 -63 2553 56 
Q 2825 175 3013 406 
Q 3200 634 3300 970 
Q 3400 1306 3400 1741 
z
M 1034 1856 
Q 1034 1938 1034 2016 
Q 1034 2094 1034 2172 
L 1034 2934 
Q 1034 3253 1098 3495 
Q 1163 3738 1294 3891 
Q 1403 4013 1561 4077 
Q 1719 4141 1925 4141 
Q 2128 4141 2283 4081 
Q 2438 4022 2544 3903 
Q 2653 3788 2717 3614 
Q 2781 3441 2806 3216 
L 1034 1856 
z
M 2819 1619 
Q 2819 1284 2751 1037 
Q 2684 791 2541 638 
Q 2434 525 2281 465 
Q 2128 406 1931 406 
Q 1744 406 1594 461 
Q 1444 516 1338 622 
Q 1222 734 1150 907 
Q 1078 1081 1050 1309 
L 2819 2663 
Q 2819 2575 2819 2442 
Q 2819 2309 2819 2263 
L 2819 1619 
z
" transform="scale(0.015625)"/>
       </defs>
       <use xlink:href="#RobotoMonoNFM-Rg-30"/>
      </g>
     </g>
    </g>
    <g id="xtick_2">
     <g id="line2d_3">
      <path d="M 476.26875 561.6 
L 476.26875 7.2 
" clip-path="url(#p2810f059d3)" style="fill: none; stroke: #cccccc; stroke-opacity: 0.25; stroke-width: 0.75; stroke-linecap: round"/>
     </g>
     <g id="line2d_4">
      <g>
       <use xlink:href="#mf2f36098d6" x="476.26875" y="561.6" style="fill: #262626; stroke: #262626; stroke-width: 1.25"/>
      </g>
     </g>
     <g id="text_2">
      <!-- 1 -->
      <g style="fill: #262626" transform="translate(470.267188 580.1) scale(0.2 -0.2)">
       <defs>
        <path id="RobotoMonoNFM-Rg-31" d="M 2419 0 
L 2419 4550 
L 2372 4550 
L 650 3888 
L 650 3359 
L 1841 3813 
L 1841 0 
L 2419 0 
z
" transform="scale(0.015625)"/>
       </defs>
       <use xlink:href="#RobotoMonoNFM-Rg-31"/>
      </g>
     </g>
    </g>
    <g id="xtick_3">
     <g id="line2d_5">
      <path d="M 85.66875 561.6 
L 85.66875 7.2 
" clip-path="url(#p2810f059d3)" style="fill: none; stroke: #cccccc; stroke-opacity: 0.15; stroke-width: 0.25; stroke-linecap: round"/>
     </g>
     <g id="line2d_6">
      <defs>
       <path id="m8c0d9dbe64" d="M 0 0 
L 0 -4 
" style="stroke: #262626"/>
      </defs>
      <g>
       <use xlink:href="#m8c0d9dbe64" x="85.66875" y="561.6" style="fill: #262626; stroke: #262626"/>
      </g>
     </g>
    </g>
    <g id="xtick_4">
     <g id="line2d_7">
      <path d="M 141.46875 561.6 
L 141.46875 7.2 
" clip-path="url(#p2810f059d3)" style="fill: none; stroke: #cccccc; stroke-opacity: 0.15; stroke-width: 0.25; stroke-linecap: round"/>
     </g>
     <g id="line2d_8">
      <g>
       <use xlink:href="#m8c0d9dbe64" x="141.46875" y="561.6" style="fill: #262626; stroke: #262626"/>
      </g>
     </g>
    </g>
    <g id="xtick_5">
     <g id="line2d_9">
      <path d="M 253.06875 561.6 
L 253.06875 7.2 
" clip-path="url(#p2810f059d3)" style="fill: none; stroke: #cccccc; stroke-opacity: 0.15; stroke-width: 0.25; stroke-linecap: round"/>
     </g>
     <g id="line2d_10">
      <g>
       <use xlink:href="#m8c0d9dbe64" x="253.06875" y="561.6" style="fill: #262626; stroke: #262626"/>
      </g>
     </g>
    </g>
    <g id="xtick_6">
     <g id="line2d_11">
      <path d="M 308.86875 561.6 
L 308.86875 7.2 
" clip-path="url(#p2810f059d3)" style="fill: none; stroke: #cccccc; stroke-opacity: 0.15; stroke-width: 0.25; stroke-linecap: round"/>
     </g>
     <g id="line2d_12">
      <g>
       <use xlink:href="#m8c0d9dbe64" x="308.86875" y="561.6" style="fill: #262626; stroke: #262626"/>
      </g>
     </g>
    </g>
    <g id="xtick_7">
     <g id="line2d_13">
      <path d="M 364.66875 561.6 
L 364.66875 7.2 
" clip-path="url(#p2810f059d3)" style="fill: none; stroke: #cccccc; stroke-opacity: 0.15; stroke-width: 0.25; stroke-linecap: round"/>
     </g>
     <g id="line2d_14">
      <g>
       <use xlink:href="#m8c0d9dbe64" x="364.66875" y="561.6" style="fill: #262626; stroke: #262626"/>
      </g>
     </g>
    </g>
    <g id="xtick_8">
     <g id="line2d_15">
      <path d="M 420.46875 561.6 
L 420.46875 7.2 
" clip-path="url(#p2810f059d3)" style="fill: none; stroke: #cccccc; stroke-opacity: 0.15; stroke-width: 0.25; stroke-linecap: round"/>
     </g>
     <g id="line2d_16">
      <g>
       <use xlink:href="#m8c0d9dbe64" x="420.46875" y="561.6" style="fill: #262626; stroke: #262626"/>
      </g>
     </g>
    </g>
    <g id="xtick_9">
     <g id="line2d_17">
      <path d="M 532.06875 561.6 
L 532.06875 7.2 
" clip-path="url(#p2810f059d3)" style="fill: none; stroke: #cccccc; stroke-opacity: 0.15; stroke-width: 0.25; stroke-linecap: round"/>
     </g>
     <g id="line2d_18">
      <g>
       <use xlink:href="#m8c0d9dbe64" x="532.06875" y="561.6" style="fill: #262626; stroke: #262626"/>
      </g>
     </g>
    </g>
    <g id="xtick_10">
     <g id="line2d_19">
      <path d="M 587.86875 561.6 
L 587.86875 7.2 
" clip-path="url(#p2810f059d3)" style="fill: none; stroke: #cccccc; stroke-opacity: 0.15; stroke-width: 0.25; stroke-linecap: round"/>
     </g>
     <g id="line2d_20">
      <g>
       <use xlink:href="#m8c0d9dbe64" x="587.86875" y="561.6" style="fill: #262626; stroke: #262626"/>
      </g>
     </g>
    </g>
    <g id="text_3">
     <!-- Target -->
     <g style="fill: #262626" transform="translate(300.759375 603.065625) scale(0.2 -0.2)">
      <defs>
       <path id="RobotoMonoNFM-Rg-54" d="M 3613 4056 
L 3613 4550 
L 238 4550 
L 238 4056 
L 1644 4056 
L 1644 0 
L 2206 0 
L 2206 4056 
L 3613 4056 
z
" transform="scale(0.015625)"/>
       <path id="RobotoMonoNFM-Rg-61" d="M 2766 0 
L 3369 0 
L 3369 50 
Q 3313 191 3281 380 
Q 3250 569 3250 738 
L 3250 2309 
Q 3250 2594 3147 2806 
Q 3044 3019 2866 3163 
Q 2684 3303 2437 3373 
Q 2191 3444 1903 3444 
Q 1588 3444 1339 3356 
Q 1091 3269 919 3128 
Q 744 2984 651 2806 
Q 559 2628 556 2444 
L 1138 2444 
Q 1138 2550 1189 2648 
Q 1241 2747 1334 2819 
Q 1428 2891 1564 2934 
Q 1700 2978 1872 2978 
Q 2056 2978 2204 2931 
Q 2353 2884 2456 2800 
Q 2559 2713 2615 2591 
Q 2672 2469 2672 2316 
L 2672 2050 
L 2041 2050 
Q 1688 2050 1402 1981 
Q 1116 1913 913 1775 
Q 709 1634 598 1425 
Q 488 1216 488 938 
Q 488 725 570 542 
Q 653 359 806 228 
Q 956 94 1173 15 
Q 1391 -63 1659 -63 
Q 1825 -63 1972 -28 
Q 2119 6 2250 66 
Q 2378 125 2486 203 
Q 2594 281 2681 369 
Q 2691 263 2711 164 
Q 2731 66 2766 0 
z
M 1744 441 
Q 1575 441 1447 484 
Q 1319 528 1234 606 
Q 1150 681 1108 787 
Q 1066 894 1066 1019 
Q 1066 1150 1114 1253 
Q 1163 1356 1256 1431 
Q 1388 1538 1611 1589 
Q 1834 1641 2134 1641 
L 2672 1641 
L 2672 956 
Q 2622 856 2534 764 
Q 2447 672 2328 600 
Q 2206 528 2059 484 
Q 1913 441 1744 441 
z
" transform="scale(0.015625)"/>
       <path id="RobotoMonoNFM-Rg-72" d="M 2759 3444 
Q 2391 3444 2102 3283 
Q 1813 3122 1606 2844 
L 1603 2928 
L 1578 3381 
L 1028 3381 
L 1028 0 
L 1609 0 
L 1609 2169 
Q 1666 2325 1752 2451 
Q 1838 2578 1953 2666 
Q 2081 2766 2253 2817 
Q 2425 2869 2638 2869 
Q 2803 2869 2954 2851 
Q 3106 2834 3275 2797 
L 3353 3363 
Q 3266 3400 3092 3422 
Q 2919 3444 2759 3444 
z
" transform="scale(0.015625)"/>
       <path id="RobotoMonoNFM-Rg-67" d="M 438 1719 
L 438 1653 
Q 438 1291 531 977 
Q 625 663 800 431 
Q 972 200 1222 68 
Q 1472 -63 1781 -63 
Q 1966 -63 2125 -23 
Q 2284 16 2416 88 
Q 2500 134 2573 196 
Q 2647 259 2713 334 
L 2713 44 
Q 2713 -175 2650 -344 
Q 2588 -513 2472 -625 
Q 2353 -741 2187 -800 
Q 2022 -859 1816 -859 
Q 1700 -859 1584 -836 
Q 1469 -813 1353 -759 
Q 1238 -706 1125 -617 
Q 1013 -528 906 -400 
L 606 -747 
Q 722 -913 883 -1025 
Q 1044 -1138 1219 -1203 
Q 1391 -1272 1559 -1301 
Q 1728 -1331 1859 -1331 
Q 2178 -1331 2440 -1237 
Q 2703 -1144 2894 -963 
Q 3081 -781 3186 -522 
Q 3291 -263 3291 72 
L 3291 3381 
L 2766 3381 
L 2738 3013 
Q 2678 3088 2611 3150 
Q 2544 3213 2469 3259 
Q 2331 3350 2161 3397 
Q 1991 3444 1788 3444 
Q 1472 3444 1222 3316 
Q 972 3188 797 2959 
Q 622 2731 530 2414 
Q 438 2097 438 1719 
z
M 1016 1653 
L 1016 1719 
Q 1016 1966 1067 2189 
Q 1119 2413 1231 2584 
Q 1341 2753 1514 2853 
Q 1688 2953 1931 2953 
Q 2075 2953 2194 2917 
Q 2313 2881 2409 2819 
Q 2506 2753 2581 2665 
Q 2656 2578 2713 2472 
L 2713 922 
Q 2656 813 2581 722 
Q 2506 631 2413 566 
Q 2316 500 2195 464 
Q 2075 428 1925 428 
Q 1684 428 1512 526 
Q 1341 625 1231 794 
Q 1119 963 1067 1184 
Q 1016 1406 1016 1653 
z
" transform="scale(0.015625)"/>
       <path id="RobotoMonoNFM-Rg-65" d="M 2038 -63 
Q 2531 -63 2867 135 
Q 3203 334 3372 591 
L 3019 866 
Q 2859 659 2618 534 
Q 2378 409 2069 409 
Q 1834 409 1640 496 
Q 1447 584 1309 738 
Q 1175 881 1098 1068 
Q 1022 1256 1000 1503 
L 1000 1525 
L 3416 1525 
L 3416 1784 
Q 3416 2138 3327 2441 
Q 3238 2744 3056 2969 
Q 2875 3191 2601 3317 
Q 2328 3444 1963 3444 
Q 1672 3444 1395 3325 
Q 1119 3206 903 2984 
Q 684 2759 553 2436 
Q 422 2113 422 1703 
L 422 1572 
Q 422 1219 540 919 
Q 659 619 872 400 
Q 1084 181 1382 59 
Q 1681 -63 2038 -63 
z
M 1963 2969 
Q 2184 2969 2345 2887 
Q 2506 2806 2613 2675 
Q 2719 2544 2778 2364 
Q 2838 2184 2838 2028 
L 2838 2000 
L 1019 2000 
Q 1053 2234 1139 2414 
Q 1225 2594 1350 2719 
Q 1475 2841 1631 2905 
Q 1788 2969 1963 2969 
z
" transform="scale(0.015625)"/>
       <path id="RobotoMonoNFM-Rg-74" d="M 1913 4200 
L 1331 4200 
L 1331 3381 
L 444 3381 
L 444 2934 
L 1331 2934 
L 1331 1097 
Q 1331 784 1414 564 
Q 1497 344 1641 206 
Q 1784 66 1979 1 
Q 2175 -63 2400 -63 
Q 2534 -63 2670 -50 
Q 2806 -38 2928 -13 
Q 3050 9 3153 42 
Q 3256 75 3328 119 
L 3247 528 
Q 3194 516 3111 498 
Q 3028 481 2934 466 
Q 2838 450 2738 439 
Q 2638 428 2544 428 
Q 2416 428 2302 459 
Q 2188 491 2100 569 
Q 2013 644 1963 772 
Q 1913 900 1913 1097 
L 1913 2934 
L 3200 2934 
L 3200 3381 
L 1913 3381 
L 1913 4200 
z
" transform="scale(0.015625)"/>
      </defs>
      <use xlink:href="#RobotoMonoNFM-Rg-54"/>
      <use xlink:href="#RobotoMonoNFM-Rg-61" x="60.009766"/>
      <use xlink:href="#RobotoMonoNFM-Rg-72" x="120.019531"/>
      <use xlink:href="#RobotoMonoNFM-Rg-67" x="180.029297"/>
      <use xlink:href="#RobotoMonoNFM-Rg-65" x="240.039062"/>
      <use xlink:href="#RobotoMonoNFM-Rg-74" x="300.048828"/>
     </g>
    </g>
   </g>
   <g id="matplotlib.axis_2">
    <g id="ytick_1">
     <g id="line2d_21">
      <path d="M 57.76875 547.356522 
L 615.76875 547.356522 
" clip-path="url(#p2810f059d3)" style="fill: none; stroke: #cccccc; stroke-opacity: 0.25; stroke-width: 0.75; stroke-linecap: round"/>
     </g>
     <g id="line2d_22">
      <defs>
       <path id="m3a993a49fb" d="M 0 0 
L 8 0 
" style="stroke: #262626; stroke-width: 1.25"/>
      </defs>
      <g>
       <use xlink:href="#m3a993a49fb" x="57.76875" y="547.356522" style="fill: #262626; stroke: #262626; stroke-width: 1.25"/>
      </g>
     </g>
     <g id="text_4">
      <!-- 20 -->
      <g style="fill: #262626" transform="translate(30.2625 554.856522) scale(0.2 -0.2)">
       <defs>
        <path id="RobotoMonoNFM-Rg-32" d="M 3334 0 
L 3334 472 
L 1050 472 
L 2272 1797 
Q 2444 1984 2598 2173 
Q 2753 2363 2872 2556 
Q 2988 2750 3056 2948 
Q 3125 3147 3125 3350 
Q 3125 3622 3029 3853 
Q 2934 4084 2756 4253 
Q 2578 4422 2320 4517 
Q 2063 4613 1741 4613 
Q 1391 4613 1117 4500 
Q 844 4388 656 4197 
Q 466 4006 366 3751 
Q 266 3497 266 3209 
L 847 3209 
Q 847 3422 901 3594 
Q 956 3766 1069 3888 
Q 1178 4006 1345 4072 
Q 1513 4138 1741 4138 
Q 1928 4138 2076 4073 
Q 2225 4009 2331 3900 
Q 2434 3791 2489 3642 
Q 2544 3494 2544 3325 
Q 2544 3188 2509 3058 
Q 2475 2928 2394 2784 
Q 2313 2638 2178 2466 
Q 2044 2294 1844 2072 
L 353 416 
L 353 0 
L 3334 0 
z
" transform="scale(0.015625)"/>
       </defs>
       <use xlink:href="#RobotoMonoNFM-Rg-32"/>
       <use xlink:href="#RobotoMonoNFM-Rg-30" x="60.009766"/>
      </g>
     </g>
    </g>
    <g id="ytick_2">
     <g id="line2d_23">
      <path d="M 57.76875 437.791304 
L 615.76875 437.791304 
" clip-path="url(#p2810f059d3)" style="fill: none; stroke: #cccccc; stroke-opacity: 0.25; stroke-width: 0.75; stroke-linecap: round"/>
     </g>
     <g id="line2d_24">
      <g>
       <use xlink:href="#m3a993a49fb" x="57.76875" y="437.791304" style="fill: #262626; stroke: #262626; stroke-width: 1.25"/>
      </g>
     </g>
     <g id="text_5">
      <!-- 30 -->
      <g style="fill: #262626" transform="translate(30.2625 445.291304) scale(0.2 -0.2)">
       <defs>
        <path id="RobotoMonoNFM-Rg-33" d="M 1219 2553 
L 1219 2084 
L 1631 2084 
Q 1847 2084 2026 2034 
Q 2206 1984 2334 1881 
Q 2459 1778 2529 1623 
Q 2600 1469 2600 1256 
Q 2600 1041 2539 883 
Q 2478 725 2366 619 
Q 2253 513 2093 461 
Q 1934 409 1738 409 
Q 1541 409 1380 465 
Q 1219 522 1106 625 
Q 994 728 933 875 
Q 872 1022 872 1200 
L 294 1200 
Q 294 900 408 665 
Q 522 431 716 269 
Q 909 106 1173 21 
Q 1438 -63 1738 -63 
Q 2044 -63 2308 26 
Q 2572 116 2766 288 
Q 2959 456 3068 703 
Q 3178 950 3178 1269 
Q 3178 1425 3142 1584 
Q 3106 1744 3019 1888 
Q 2928 2031 2779 2147 
Q 2631 2263 2409 2334 
Q 2594 2413 2726 2530 
Q 2859 2647 2944 2781 
Q 3028 2913 3068 3053 
Q 3109 3194 3109 3325 
Q 3109 3641 3009 3881 
Q 2909 4122 2728 4284 
Q 2547 4447 2294 4530 
Q 2041 4613 1734 4613 
Q 1419 4613 1161 4514 
Q 903 4416 719 4247 
Q 534 4075 432 3845 
Q 331 3616 331 3356 
L 913 3356 
Q 913 3534 972 3678 
Q 1031 3822 1141 3925 
Q 1247 4028 1398 4083 
Q 1550 4138 1734 4138 
Q 1925 4138 2073 4089 
Q 2222 4041 2322 3944 
Q 2425 3844 2478 3692 
Q 2531 3541 2531 3338 
Q 2531 3166 2472 3022 
Q 2413 2878 2300 2775 
Q 2184 2672 2017 2612 
Q 1850 2553 1631 2553 
L 1219 2553 
z
" transform="scale(0.015625)"/>
       </defs>
       <use xlink:href="#RobotoMonoNFM-Rg-33"/>
       <use xlink:href="#RobotoMonoNFM-Rg-30" x="60.009766"/>
      </g>
     </g>
    </g>
    <g id="ytick_3">
     <g id="line2d_25">
      <path d="M 57.76875 328.226087 
L 615.76875 328.226087 
" clip-path="url(#p2810f059d3)" style="fill: none; stroke: #cccccc; stroke-opacity: 0.25; stroke-width: 0.75; stroke-linecap: round"/>
     </g>
     <g id="line2d_26">
      <g>
       <use xlink:href="#m3a993a49fb" x="57.76875" y="328.226087" style="fill: #262626; stroke: #262626; stroke-width: 1.25"/>
      </g>
     </g>
     <g id="text_6">
      <!-- 40 -->
      <g style="fill: #262626" transform="translate(30.2625 335.726087) scale(0.2 -0.2)">
       <defs>
        <path id="RobotoMonoNFM-Rg-34" d="M 2888 1528 
L 2888 4550 
L 2272 4550 
L 234 1397 
L 234 1056 
L 2309 1056 
L 2309 0 
L 2888 0 
L 2888 1056 
L 3522 1056 
L 3522 1528 
L 2888 1528 
z
M 875 1528 
L 2216 3606 
L 2309 3781 
L 2309 1528 
L 875 1528 
z
" transform="scale(0.015625)"/>
       </defs>
       <use xlink:href="#RobotoMonoNFM-Rg-34"/>
       <use xlink:href="#RobotoMonoNFM-Rg-30" x="60.009766"/>
      </g>
     </g>
    </g>
    <g id="ytick_4">
     <g id="line2d_27">
      <path d="M 57.76875 218.66087 
L 615.76875 218.66087 
" clip-path="url(#p2810f059d3)" style="fill: none; stroke: #cccccc; stroke-opacity: 0.25; stroke-width: 0.75; stroke-linecap: round"/>
     </g>
     <g id="line2d_28">
      <g>
       <use xlink:href="#m3a993a49fb" x="57.76875" y="218.66087" style="fill: #262626; stroke: #262626; stroke-width: 1.25"/>
      </g>
     </g>
     <g id="text_7">
      <!-- 50 -->
      <g style="fill: #262626" transform="translate(30.2625 226.16087) scale(0.2 -0.2)">
       <defs>
        <path id="RobotoMonoNFM-Rg-35" d="M 750 2281 
L 1213 2163 
Q 1291 2231 1364 2284 
Q 1438 2338 1522 2375 
Q 1606 2413 1711 2433 
Q 1816 2453 1959 2453 
Q 2178 2453 2347 2375 
Q 2516 2297 2631 2163 
Q 2747 2025 2808 1840 
Q 2869 1656 2869 1444 
Q 2869 1209 2814 1018 
Q 2759 828 2653 694 
Q 2544 556 2384 482 
Q 2225 409 2019 409 
Q 1653 409 1420 609 
Q 1188 809 1134 1197 
L 584 1197 
Q 616 881 739 643 
Q 863 406 1056 250 
Q 1247 94 1494 15 
Q 1741 -63 2019 -63 
Q 2381 -63 2650 51 
Q 2919 166 3097 369 
Q 3272 569 3359 847 
Q 3447 1125 3447 1450 
Q 3447 1794 3353 2075 
Q 3259 2356 3084 2556 
Q 2909 2753 2659 2862 
Q 2409 2972 2094 2972 
Q 1847 2972 1659 2912 
Q 1472 2853 1338 2775 
L 1466 3988 
L 3313 3988 
L 3313 4550 
L 978 4550 
L 750 2281 
z
" transform="scale(0.015625)"/>
       </defs>
       <use xlink:href="#RobotoMonoNFM-Rg-35"/>
       <use xlink:href="#RobotoMonoNFM-Rg-30" x="60.009766"/>
      </g>
     </g>
    </g>
    <g id="ytick_5">
     <g id="line2d_29">
      <path d="M 57.76875 109.095652 
L 615.76875 109.095652 
" clip-path="url(#p2810f059d3)" style="fill: none; stroke: #cccccc; stroke-opacity: 0.25; stroke-width: 0.75; stroke-linecap: round"/>
     </g>
     <g id="line2d_30">
      <g>
       <use xlink:href="#m3a993a49fb" x="57.76875" y="109.095652" style="fill: #262626; stroke: #262626; stroke-width: 1.25"/>
      </g>
     </g>
     <g id="text_8">
      <!-- 60 -->
      <g style="fill: #262626" transform="translate(30.2625 116.595652) scale(0.2 -0.2)">
       <defs>
        <path id="RobotoMonoNFM-Rg-36" d="M 2675 4553 
L 2625 4553 
Q 2138 4553 1753 4417 
Q 1369 4281 1100 4013 
Q 709 3622 575 3072 
Q 441 2522 441 1953 
L 441 1681 
Q 441 1350 541 1020 
Q 641 691 844 444 
Q 1025 219 1290 78 
Q 1556 -63 1906 -63 
Q 2253 -63 2517 59 
Q 2781 181 2959 394 
Q 3138 603 3227 884 
Q 3316 1166 3316 1484 
Q 3316 1763 3241 2031 
Q 3166 2300 3006 2513 
Q 2847 2725 2600 2854 
Q 2353 2984 2013 2984 
Q 1856 2984 1714 2948 
Q 1572 2913 1450 2853 
Q 1325 2791 1219 2708 
Q 1113 2625 1031 2528 
Q 1050 2828 1151 3112 
Q 1253 3397 1450 3603 
Q 1638 3800 1925 3917 
Q 2213 4034 2625 4034 
L 2675 4034 
L 2675 4553 
z
M 1919 2503 
Q 2128 2503 2284 2415 
Q 2441 2328 2544 2181 
Q 2647 2034 2697 1845 
Q 2747 1656 2747 1456 
Q 2747 1231 2692 1039 
Q 2638 847 2531 709 
Q 2422 572 2265 494 
Q 2109 416 1906 416 
Q 1731 416 1572 498 
Q 1413 581 1291 741 
Q 1169 900 1097 1133 
Q 1025 1366 1025 1666 
L 1025 1859 
Q 1078 2003 1168 2122 
Q 1259 2241 1378 2325 
Q 1497 2409 1634 2456 
Q 1772 2503 1919 2503 
z
" transform="scale(0.015625)"/>
       </defs>
       <use xlink:href="#RobotoMonoNFM-Rg-36"/>
       <use xlink:href="#RobotoMonoNFM-Rg-30" x="60.009766"/>
      </g>
     </g>
    </g>
    <g id="ytick_6">
     <g id="line2d_31">
      <path d="M 57.76875 525.443478 
L 615.76875 525.443478 
" clip-path="url(#p2810f059d3)" style="fill: none; stroke: #cccccc; stroke-opacity: 0.15; stroke-width: 0.25; stroke-linecap: round"/>
     </g>
     <g id="line2d_32">
      <defs>
       <path id="m3d45738e35" d="M 0 0 
L 4 0 
" style="stroke: #262626"/>
      </defs>
      <g>
       <use xlink:href="#m3d45738e35" x="57.76875" y="525.443478" style="fill: #262626; stroke: #262626"/>
      </g>
     </g>
    </g>
    <g id="ytick_7">
     <g id="line2d_33">
      <path d="M 57.76875 503.530435 
L 615.76875 503.530435 
" clip-path="url(#p2810f059d3)" style="fill: none; stroke: #cccccc; stroke-opacity: 0.15; stroke-width: 0.25; stroke-linecap: round"/>
     </g>
     <g id="line2d_34">
      <g>
       <use xlink:href="#m3d45738e35" x="57.76875" y="503.530435" style="fill: #262626; stroke: #262626"/>
      </g>
     </g>
    </g>
    <g id="ytick_8">
     <g id="line2d_35">
      <path d="M 57.76875 481.617391 
L 615.76875 481.617391 
" clip-path="url(#p2810f059d3)" style="fill: none; stroke: #cccccc; stroke-opacity: 0.15; stroke-width: 0.25; stroke-linecap: round"/>
     </g>
     <g id="line2d_36">
      <g>
       <use xlink:href="#m3d45738e35" x="57.76875" y="481.617391" style="fill: #262626; stroke: #262626"/>
      </g>
     </g>
    </g>
    <g id="ytick_9">
     <g id="line2d_37">
      <path d="M 57.76875 459.704348 
L 615.76875 459.704348 
" clip-path="url(#p2810f059d3)" style="fill: none; stroke: #cccccc; stroke-opacity: 0.15; stroke-width: 0.25; stroke-linecap: round"/>
     </g>
     <g id="line2d_38">
      <g>
       <use xlink:href="#m3d45738e35" x="57.76875" y="459.704348" style="fill: #262626; stroke: #262626"/>
      </g>
     </g>
    </g>
    <g id="ytick_10">
     <g id="line2d_39">
      <path d="M 57.76875 415.878261 
L 615.76875 415.878261 
" clip-path="url(#p2810f059d3)" style="fill: none; stroke: #cccccc; stroke-opacity: 0.15; stroke-width: 0.25; stroke-linecap: round"/>
     </g>
     <g id="line2d_40">
      <g>
       <use xlink:href="#m3d45738e35" x="57.76875" y="415.878261" style="fill: #262626; stroke: #262626"/>
      </g>
     </g>
    </g>
    <g id="ytick_11">
     <g id="line2d_41">
      <path d="M 57.76875 393.965217 
L 615.76875 393.965217 
" clip-path="url(#p2810f059d3)" style="fill: none; stroke: #cccccc; stroke-opacity: 0.15; stroke-width: 0.25; stroke-linecap: round"/>
     </g>
     <g id="line2d_42">
      <g>
       <use xlink:href="#m3d45738e35" x="57.76875" y="393.965217" style="fill: #262626; stroke: #262626"/>
      </g>
     </g>
    </g>
    <g id="ytick_12">
     <g id="line2d_43">
      <path d="M 57.76875 372.052174 
L 615.76875 372.052174 
" clip-path="url(#p2810f059d3)" style="fill: none; stroke: #cccccc; stroke-opacity: 0.15; stroke-width: 0.25; stroke-linecap: round"/>
     </g>
     <g id="line2d_44">
      <g>
       <use xlink:href="#m3d45738e35" x="57.76875" y="372.052174" style="fill: #262626; stroke: #262626"/>
      </g>
     </g>
    </g>
    <g id="ytick_13">
     <g id="line2d_45">
      <path d="M 57.76875 350.13913 
L 615.76875 350.13913 
" clip-path="url(#p2810f059d3)" style="fill: none; stroke: #cccccc; stroke-opacity: 0.15; stroke-width: 0.25; stroke-linecap: round"/>
     </g>
     <g id="line2d_46">
      <g>
       <use xlink:href="#m3d45738e35" x="57.76875" y="350.13913" style="fill: #262626; stroke: #262626"/>
      </g>
     </g>
    </g>
    <g id="ytick_14">
     <g id="line2d_47">
      <path d="M 57.76875 306.313043 
L 615.76875 306.313043 
" clip-path="url(#p2810f059d3)" style="fill: none; stroke: #cccccc; stroke-opacity: 0.15; stroke-width: 0.25; stroke-linecap: round"/>
     </g>
     <g id="line2d_48">
      <g>
       <use xlink:href="#m3d45738e35" x="57.76875" y="306.313043" style="fill: #262626; stroke: #262626"/>
      </g>
     </g>
    </g>
    <g id="ytick_15">
     <g id="line2d_49">
      <path d="M 57.76875 284.4 
L 615.76875 284.4 
" clip-path="url(#p2810f059d3)" style="fill: none; stroke: #cccccc; stroke-opacity: 0.15; stroke-width: 0.25; stroke-linecap: round"/>
     </g>
     <g id="line2d_50">
      <g>
       <use xlink:href="#m3d45738e35" x="57.76875" y="284.4" style="fill: #262626; stroke: #262626"/>
      </g>
     </g>
    </g>
    <g id="ytick_16">
     <g id="line2d_51">
      <path d="M 57.76875 262.486957 
L 615.76875 262.486957 
" clip-path="url(#p2810f059d3)" style="fill: none; stroke: #cccccc; stroke-opacity: 0.15; stroke-width: 0.25; stroke-linecap: round"/>
     </g>
     <g id="line2d_52">
      <g>
       <use xlink:href="#m3d45738e35" x="57.76875" y="262.486957" style="fill: #262626; stroke: #262626"/>
      </g>
     </g>
    </g>
    <g id="ytick_17">
     <g id="line2d_53">
      <path d="M 57.76875 240.573913 
L 615.76875 240.573913 
" clip-path="url(#p2810f059d3)" style="fill: none; stroke: #cccccc; stroke-opacity: 0.15; stroke-width: 0.25; stroke-linecap: round"/>
     </g>
     <g id="line2d_54">
      <g>
       <use xlink:href="#m3d45738e35" x="57.76875" y="240.573913" style="fill: #262626; stroke: #262626"/>
      </g>
     </g>
    </g>
    <g id="ytick_18">
     <g id="line2d_55">
      <path d="M 57.76875 196.747826 
L 615.76875 196.747826 
" clip-path="url(#p2810f059d3)" style="fill: none; stroke: #cccccc; stroke-opacity: 0.15; stroke-width: 0.25; stroke-linecap: round"/>
     </g>
     <g id="line2d_56">
      <g>
       <use xlink:href="#m3d45738e35" x="57.76875" y="196.747826" style="fill: #262626; stroke: #262626"/>
      </g>
     </g>
    </g>
    <g id="ytick_19">
     <g id="line2d_57">
      <path d="M 57.76875 174.834783 
L 615.76875 174.834783 
" clip-path="url(#p2810f059d3)" style="fill: none; stroke: #cccccc; stroke-opacity: 0.15; stroke-width: 0.25; stroke-linecap: round"/>
     </g>
     <g id="line2d_58">
      <g>
       <use xlink:href="#m3d45738e35" x="57.76875" y="174.834783" style="fill: #262626; stroke: #262626"/>
      </g>
     </g>
    </g>
    <g id="ytick_20">
     <g id="line2d_59">
      <path d="M 57.76875 152.921739 
L 615.76875 152.921739 
" clip-path="url(#p2810f059d3)" style="fill: none; stroke: #cccccc; stroke-opacity: 0.15; stroke-width: 0.25; stroke-linecap: round"/>
     </g>
     <g id="line2d_60">
      <g>
       <use xlink:href="#m3d45738e35" x="57.76875" y="152.921739" style="fill: #262626; stroke: #262626"/>
      </g>
     </g>
    </g>
    <g id="ytick_21">
     <g id="line2d_61">
      <path d="M 57.76875 131.008696 
L 615.76875 131.008696 
" clip-path="url(#p2810f059d3)" style="fill: none; stroke: #cccccc; stroke-opacity: 0.15; stroke-width: 0.25; stroke-linecap: round"/>
     </g>
     <g id="line2d_62">
      <g>
       <use xlink:href="#m3d45738e35" x="57.76875" y="131.008696" style="fill: #262626; stroke: #262626"/>
      </g>
     </g>
    </g>
    <g id="ytick_22">
     <g id="line2d_63">
      <path d="M 57.76875 87.182609 
L 615.76875 87.182609 
" clip-path="url(#p2810f059d3)" style="fill: none; stroke: #cccccc; stroke-opacity: 0.15; stroke-width: 0.25; stroke-linecap: round"/>
     </g>
     <g id="line2d_64">
      <g>
       <use xlink:href="#m3d45738e35" x="57.76875" y="87.182609" style="fill: #262626; stroke: #262626"/>
      </g>
     </g>
    </g>
    <g id="ytick_23">
     <g id="line2d_65">
      <path d="M 57.76875 65.269565 
L 615.76875 65.269565 
" clip-path="url(#p2810f059d3)" style="fill: none; stroke: #cccccc; stroke-opacity: 0.15; stroke-width: 0.25; stroke-linecap: round"/>
     </g>
     <g id="line2d_66">
      <g>
       <use xlink:href="#m3d45738e35" x="57.76875" y="65.269565" style="fill: #262626; stroke: #262626"/>
      </g>
     </g>
    </g>
    <g id="ytick_24">
     <g id="line2d_67">
      <path d="M 57.76875 43.356522 
L 615.76875 43.356522 
" clip-path="url(#p2810f059d3)" style="fill: none; stroke: #cccccc; stroke-opacity: 0.15; stroke-width: 0.25; stroke-linecap: round"/>
     </g>
     <g id="line2d_68">
      <g>
       <use xlink:href="#m3d45738e35" x="57.76875" y="43.356522" style="fill: #262626; stroke: #262626"/>
      </g>
     </g>
    </g>
    <g id="ytick_25">
     <g id="line2d_69">
      <path d="M 57.76875 21.443478 
L 615.76875 21.443478 
" clip-path="url(#p2810f059d3)" style="fill: none; stroke: #cccccc; stroke-opacity: 0.15; stroke-width: 0.25; stroke-linecap: round"/>
     </g>
     <g id="line2d_70">
      <g>
       <use xlink:href="#m3d45738e35" x="57.76875" y="21.443478" style="fill: #262626; stroke: #262626"/>
      </g>
     </g>
    </g>
    <g id="text_9">
     <!-- Age -->
     <g style="fill: #262626" transform="translate(22.103125 302.404687) rotate(-90) scale(0.2 -0.2)">
      <defs>
       <path id="RobotoMonoNFM-Rg-41" d="M 2716 1178 
L 3075 0 
L 3650 0 
L 2206 4550 
L 1722 4550 
L 253 0 
L 831 0 
L 1197 1178 
L 2716 1178 
z
M 1353 1681 
L 1963 3656 
L 2563 1681 
L 1353 1681 
z
" transform="scale(0.015625)"/>
      </defs>
      <use xlink:href="#RobotoMonoNFM-Rg-41"/>
      <use xlink:href="#RobotoMonoNFM-Rg-67" x="60.009766"/>
      <use xlink:href="#RobotoMonoNFM-Rg-65" x="120.019531"/>
     </g>
    </g>
   </g>
   <g id="patch_3">
    <path d="M 197.26875 766.486957 
L 197.26875 766.486957 
L 197.26875 766.486957 
L 197.26875 766.486957 
z
" clip-path="url(#p2810f059d3)" style="fill: #3c6682; stroke: #393939; stroke-linejoin: miter"/>
   </g>
   <g id="patch_4">
    <path d="M 197.26875 766.486957 
L 197.26875 766.486957 
L 197.26875 766.486957 
L 197.26875 766.486957 
z
" clip-path="url(#p2810f059d3)" style="fill: #45a778; stroke: #393939; stroke-linejoin: miter"/>
   </g>
   <g id="patch_5">
    <path d="M 85.66875 404.921739 
L 308.86875 404.921739 
L 308.86875 240.573913 
L 85.66875 240.573913 
L 85.66875 404.921739 
z
" clip-path="url(#p2810f059d3)" style="fill: #3c6682; stroke: #393939; stroke-linejoin: miter"/>
   </g>
   <g id="line2d_71">
    <path d="M 197.26875 404.921739 
L 197.26875 536.4 
" clip-path="url(#p2810f059d3)" style="fill: none; stroke: #393939"/>
   </g>
   <g id="line2d_72">
    <path d="M 197.26875 240.573913 
L 197.26875 32.4 
" clip-path="url(#p2810f059d3)" style="fill: none; stroke: #393939"/>
   </g>
   <g id="line2d_73">
    <path d="M 141.46875 536.4 
L 253.06875 536.4 
" clip-path="url(#p2810f059d3)" style="fill: none; stroke: #393939; stroke-linecap: round"/>
   </g>
   <g id="line2d_74">
    <path d="M 141.46875 32.4 
L 253.06875 32.4 
" clip-path="url(#p2810f059d3)" style="fill: none; stroke: #393939; stroke-linecap: round"/>
   </g>
   <g id="line2d_75"/>
   <g id="patch_6">
    <path d="M 364.66875 426.834783 
L 587.86875 426.834783 
L 587.86875 240.573913 
L 364.66875 240.573913 
L 364.66875 426.834783 
z
" clip-path="url(#p2810f059d3)" style="fill: #45a778; stroke: #393939; stroke-linejoin: miter"/>
   </g>
   <g id="line2d_76">
    <path d="M 476.26875 426.834783 
L 476.26875 525.443478 
" clip-path="url(#p2810f059d3)" style="fill: none; stroke: #393939"/>
   </g>
   <g id="line2d_77">
    <path d="M 476.26875 240.573913 
L 476.26875 87.182609 
" clip-path="url(#p2810f059d3)" style="fill: none; stroke: #393939"/>
   </g>
   <g id="line2d_78">
    <path d="M 420.46875 525.443478 
L 532.06875 525.443478 
" clip-path="url(#p2810f059d3)" style="fill: none; stroke: #393939; stroke-linecap: round"/>
   </g>
   <g id="line2d_79">
    <path d="M 420.46875 87.182609 
L 532.06875 87.182609 
" clip-path="url(#p2810f059d3)" style="fill: none; stroke: #393939; stroke-linecap: round"/>
   </g>
   <g id="line2d_80"/>
   <g id="line2d_81">
    <path d="M 85.66875 328.226087 
L 308.86875 328.226087 
" clip-path="url(#p2810f059d3)" style="fill: none; stroke: #393939"/>
   </g>
   <g id="line2d_82">
    <path d="M 364.66875 328.226087 
L 587.86875 328.226087 
" clip-path="url(#p2810f059d3)" style="fill: none; stroke: #393939"/>
   </g>
   <g id="patch_7">
    <path d="M 57.76875 561.6 
L 57.76875 7.2 
" style="fill: none; stroke: #cccccc; stroke-width: 1.25; stroke-linejoin: miter; stroke-linecap: square"/>
   </g>
   <g id="patch_8">
    <path d="M 615.76875 561.6 
L 615.76875 7.2 
" style="fill: none; stroke: #cccccc; stroke-width: 1.25; stroke-linejoin: miter; stroke-linecap: square"/>
   </g>
   <g id="patch_9">
    <path d="M 57.76875 561.6 
L 615.76875 561.6 
" style="fill: none; stroke: #cccccc; stroke-width: 1.25; stroke-linejoin: miter; stroke-linecap: square"/>
   </g>
   <g id="patch_10">
    <path d="M 57.76875 7.2 
L 615.76875 7.2 
" style="fill: none; stroke: #cccccc; stroke-width: 1.25; stroke-linejoin: miter; stroke-linecap: square"/>
   </g>
  </g>
 </g>
 <defs>
  <clipPath id="p2810f059d3">
   <rect x="57.76875" y="7.2" width="558" height="554.4"/>
  </clipPath>
 </defs>
</svg>
