<?xml version="1.0" encoding="utf-8" standalone="no"?>
<!DOCTYPE svg PUBLIC "-//W3C//DTD SVG 1.1//EN"
  "http://www.w3.org/Graphics/SVG/1.1/DTD/svg11.dtd">
<svg xmlns:xlink="http://www.w3.org/1999/xlink" width="658.978125pt" height="659.865pt" viewBox="0 0 658.978125 659.865" xmlns="http://www.w3.org/2000/svg" version="1.1">
 <metadata>
  <rdf:RDF xmlns:dc="http://purl.org/dc/elements/1.1/" xmlns:cc="http://creativecommons.org/ns#" xmlns:rdf="http://www.w3.org/1999/02/22-rdf-syntax-ns#">
   <cc:Work>
    <dc:type rdf:resource="http://purl.org/dc/dcmitype/StillImage"/>
    <dc:date>2026-04-20T22:30:55.276185</dc:date>
    <dc:format>image/svg+xml</dc:format>
    <dc:creator>
     <cc:Agent>
      <dc:title>Matplotlib v3.9.4, https://matplotlib.org/</dc:title>
     </cc:Agent>
    </dc:creator>
   </cc:Work>
  </rdf:RDF>
 </metadata>
 <defs>
  <style type="text/css">*{stroke-linejoin: round; stroke-linecap: butt}</style>
 </defs>
 <g id="figure_1">
  <g id="patch_1">
   <path d="M 0 659.865 
L 658.978125 659.865 
L 658.978125 0 
L 0 0 
z
" style="fill: #ffffff"/>
  </g>
  <g id="axes_1">
   <g id="patch_2">
    <path d="M 93.778125 607.04 
L 651.778125 607.04 
L 651.778125 52.64 
L 93.778125 52.64 
z
" style="fill: #ffffff"/>
   </g>
   <g id="matplotlib.axis_1">
    <g id="xtick_1">
     <g id="line2d_1">
      <path d="M 233.278125 607.04 
L 233.278125 52.64 
" clip-path="url(#pa0c363d259)" style="fill: none; stroke: #cccccc; stroke-opacity: 0.25; stroke-width: 0.75; stroke-linecap: round"/>
     </g>
     <g id="line2d_2">
      <defs>
       <path id="m5fd21f0e98" d="M 0 0 
L 0 -8 
" style="stroke: #262626; stroke-width: 1.25"/>
      </defs>
      <g>
       <use xlink:href="#m5fd21f0e98" x="233.278125" y="607.04" style="fill: #262626; stroke: #262626; stroke-width: 1.25"/>
      </g>
     </g>
     <g id="text_1">
      <!-- 0 -->
      <g style="fill: #262626" transform="translate(227.276562 625.54) scale(0.2 -0.2)">
       <defs>
        <path id="RobotoMonoNFM-Rg-30" d="M 3400 1741 
L 3400 2806 
Q 3400 3241 3300 3577 
Q 3200 3913 3013 4144 
Q 2822 4375 2548 4495 
Q 2275 4616 1925 4616 
Q 1578 4616 1304 4495 
Q 1031 4375 844 4144 
Q 653 3913 553 3577 
Q 453 3241 453 2806 
L 453 1741 
Q 453 1306 553 970 
Q 653 634 844 406 
Q 1034 172 1309 54 
Q 1584 -63 1931 -63 
Q 2281 -63 2553 56 
Q 2825 175 3013 406 
Q 3200 634 3300 970 
Q 3400 1306 3400 1741 
z
M 1034 1856 
Q 1034 1938 1034 2016 
Q 1034 2094 1034 2172 
L 1034 2934 
Q 1034 3253 1098 3495 
Q 1163 3738 1294 3891 
Q 1403 4013 1561 4077 
Q 1719 4141 1925 4141 
Q 2128 4141 2283 4081 
Q 2438 4022 2544 3903 
Q 2653 3788 2717 3614 
Q 2781 3441 2806 3216 
L 1034 1856 
z
M 2819 1619 
Q 2819 1284 2751 1037 
Q 2684 791 2541 638 
Q 2434 525 2281 465 
Q 2128 406 1931 406 
Q 1744 406 1594 461 
Q 1444 516 1338 622 
Q 1222 734 1150 907 
Q 1078 1081 1050 1309 
L 2819 2663 
Q 2819 2575 2819 2442 
Q 2819 2309 2819 2263 
L 2819 1619 
z
" transform="scale(0.015625)"/>
       </defs>
       <use xlink:href="#RobotoMonoNFM-Rg-30"/>
      </g>
     </g>
    </g>
    <g id="xtick_2">
     <g id="line2d_3">
      <path d="M 512.278125 607.04 
L 512.278125 52.64 
" clip-path="url(#pa0c363d259)" style="fill: none; stroke: #cccccc; stroke-opacity: 0.25; stroke-width: 0.75; stroke-linecap: round"/>
     </g>
     <g id="line2d_4">
      <g>
       <use xlink:href="#m5fd21f0e98" x="512.278125" y="607.04" style="fill: #262626; stroke: #262626; stroke-width: 1.25"/>
      </g>
     </g>
     <g id="text_2">
      <!-- 1 -->
      <g style="fill: #262626" transform="translate(506.276563 625.54) scale(0.2 -0.2)">
       <defs>
        <path id="RobotoMonoNFM-Rg-31" d="M 2419 0 
L 2419 4550 
L 2372 4550 
L 650 3888 
L 650 3359 
L 1841 3813 
L 1841 0 
L 2419 0 
z
" transform="scale(0.015625)"/>
       </defs>
       <use xlink:href="#RobotoMonoNFM-Rg-31"/>
      </g>
     </g>
    </g>
    <g id="xtick_3">
     <g id="line2d_5">
      <path d="M 121.678125 607.04 
L 121.678125 52.64 
" clip-path="url(#pa0c363d259)" style="fill: none; stroke: #cccccc; stroke-opacity: 0.15; stroke-width: 0.25; stroke-linecap: round"/>
     </g>
     <g id="line2d_6">
      <defs>
       <path id="mb571e5ca62" d="M 0 0 
L 0 -4 
" style="stroke: #262626"/>
      </defs>
      <g>
       <use xlink:href="#mb571e5ca62" x="121.678125" y="607.04" style="fill: #262626; stroke: #262626"/>
      </g>
     </g>
    </g>
    <g id="xtick_4">
     <g id="line2d_7">
      <path d="M 177.478125 607.04 
L 177.478125 52.64 
" clip-path="url(#pa0c363d259)" style="fill: none; stroke: #cccccc; stroke-opacity: 0.15; stroke-width: 0.25; stroke-linecap: round"/>
     </g>
     <g id="line2d_8">
      <g>
       <use xlink:href="#mb571e5ca62" x="177.478125" y="607.04" style="fill: #262626; stroke: #262626"/>
      </g>
     </g>
    </g>
    <g id="xtick_5">
     <g id="line2d_9">
      <path d="M 289.078125 607.04 
L 289.078125 52.64 
" clip-path="url(#pa0c363d259)" style="fill: none; stroke: #cccccc; stroke-opacity: 0.15; stroke-width: 0.25; stroke-linecap: round"/>
     </g>
     <g id="line2d_10">
      <g>
       <use xlink:href="#mb571e5ca62" x="289.078125" y="607.04" style="fill: #262626; stroke: #262626"/>
      </g>
     </g>
    </g>
    <g id="xtick_6">
     <g id="line2d_11">
      <path d="M 344.878125 607.04 
L 344.878125 52.64 
" clip-path="url(#pa0c363d259)" style="fill: none; stroke: #cccccc; stroke-opacity: 0.15; stroke-width: 0.25; stroke-linecap: round"/>
     </g>
     <g id="line2d_12">
      <g>
       <use xlink:href="#mb571e5ca62" x="344.878125" y="607.04" style="fill: #262626; stroke: #262626"/>
      </g>
     </g>
    </g>
    <g id="xtick_7">
     <g id="line2d_13">
      <path d="M 400.678125 607.04 
L 400.678125 52.64 
" clip-path="url(#pa0c363d259)" style="fill: none; stroke: #cccccc; stroke-opacity: 0.15; stroke-width: 0.25; stroke-linecap: round"/>
     </g>
     <g id="line2d_14">
      <g>
       <use xlink:href="#mb571e5ca62" x="400.678125" y="607.04" style="fill: #262626; stroke: #262626"/>
      </g>
     </g>
    </g>
    <g id="xtick_8">
     <g id="line2d_15">
      <path d="M 456.478125 607.04 
L 456.478125 52.64 
" clip-path="url(#pa0c363d259)" style="fill: none; stroke: #cccccc; stroke-opacity: 0.15; stroke-width: 0.25; stroke-linecap: round"/>
     </g>
     <g id="line2d_16">
      <g>
       <use xlink:href="#mb571e5ca62" x="456.478125" y="607.04" style="fill: #262626; stroke: #262626"/>
      </g>
     </g>
    </g>
    <g id="xtick_9">
     <g id="line2d_17">
      <path d="M 568.078125 607.04 
L 568.078125 52.64 
" clip-path="url(#pa0c363d259)" style="fill: none; stroke: #cccccc; stroke-opacity: 0.15; stroke-width: 0.25; stroke-linecap: round"/>
     </g>
     <g id="line2d_18">
      <g>
       <use xlink:href="#mb571e5ca62" x="568.078125" y="607.04" style="fill: #262626; stroke: #262626"/>
      </g>
     </g>
    </g>
    <g id="xtick_10">
     <g id="line2d_19">
      <path d="M 623.878125 607.04 
L 623.878125 52.64 
" clip-path="url(#pa0c363d259)" style="fill: none; stroke: #cccccc; stroke-opacity: 0.15; stroke-width: 0.25; stroke-linecap: round"/>
     </g>
     <g id="line2d_20">
      <g>
       <use xlink:href="#mb571e5ca62" x="623.878125" y="607.04" style="fill: #262626; stroke: #262626"/>
      </g>
     </g>
    </g>
    <g id="text_3">
     <!-- Target -->
     <g style="fill: #262626" transform="translate(336.76875 648.505625) scale(0.2 -0.2)">
      <defs>
       <path id="RobotoMonoNFM-Rg-54" d="M 3613 4056 
L 3613 4550 
L 238 4550 
L 238 4056 
L 1644 4056 
L 1644 0 
L 2206 0 
L 2206 4056 
L 3613 4056 
z
" transform="scale(0.015625)"/>
       <path id="RobotoMonoNFM-Rg-61" d="M 2766 0 
L 3369 0 
L 3369 50 
Q 3313 191 3281 380 
Q 3250 569 3250 738 
L 3250 2309 
Q 3250 2594 3147 2806 
Q 3044 3019 2866 3163 
Q 2684 3303 2437 3373 
Q 2191 3444 1903 3444 
Q 1588 3444 1339 3356 
Q 1091 3269 919 3128 
Q 744 2984 651 2806 
Q 559 2628 556 2444 
L 1138 2444 
Q 1138 2550 1189 2648 
Q 1241 2747 1334 2819 
Q 1428 2891 1564 2934 
Q 1700 2978 1872 2978 
Q 2056 2978 2204 2931 
Q 2353 2884 2456 2800 
Q 2559 2713 2615 2591 
Q 2672 2469 2672 2316 
L 2672 2050 
L 2041 2050 
Q 1688 2050 1402 1981 
Q 1116 1913 913 1775 
Q 709 1634 598 1425 
Q 488 1216 488 938 
Q 488 725 570 542 
Q 653 359 806 228 
Q 956 94 1173 15 
Q 1391 -63 1659 -63 
Q 1825 -63 1972 -28 
Q 2119 6 2250 66 
Q 2378 125 2486 203 
Q 2594 281 2681 369 
Q 2691 263 2711 164 
Q 2731 66 2766 0 
z
M 1744 441 
Q 1575 441 1447 484 
Q 1319 528 1234 606 
Q 1150 681 1108 787 
Q 1066 894 1066 1019 
Q 1066 1150 1114 1253 
Q 1163 1356 1256 1431 
Q 1388 1538 1611 1589 
Q 1834 1641 2134 1641 
L 2672 1641 
L 2672 956 
Q 2622 856 2534 764 
Q 2447 672 2328 600 
Q 2206 528 2059 484 
Q 1913 441 1744 441 
z
" transform="scale(0.015625)"/>
       <path id="RobotoMonoNFM-Rg-72" d="M 2759 3444 
Q 2391 3444 2102 3283 
Q 1813 3122 1606 2844 
L 1603 2928 
L 1578 3381 
L 1028 3381 
L 1028 0 
L 1609 0 
L 1609 2169 
Q 1666 2325 1752 2451 
Q 1838 2578 1953 2666 
Q 2081 2766 2253 2817 
Q 2425 2869 2638 2869 
Q 2803 2869 2954 2851 
Q 3106 2834 3275 2797 
L 3353 3363 
Q 3266 3400 3092 3422 
Q 2919 3444 2759 3444 
z
" transform="scale(0.015625)"/>
       <path id="RobotoMonoNFM-Rg-67" d="M 438 1719 
L 438 1653 
Q 438 1291 531 977 
Q 625 663 800 431 
Q 972 200 1222 68 
Q 1472 -63 1781 -63 
Q 1966 -63 2125 -23 
Q 2284 16 2416 88 
Q 2500 134 2573 196 
Q 2647 259 2713 334 
L 2713 44 
Q 2713 -175 2650 -344 
Q 2588 -513 2472 -625 
Q 2353 -741 2187 -800 
Q 2022 -859 1816 -859 
Q 1700 -859 1584 -836 
Q 1469 -813 1353 -759 
Q 1238 -706 1125 -617 
Q 1013 -528 906 -400 
L 606 -747 
Q 722 -913 883 -1025 
Q 1044 -1138 1219 -1203 
Q 1391 -1272 1559 -1301 
Q 1728 -1331 1859 -1331 
Q 2178 -1331 2440 -1237 
Q 2703 -1144 2894 -963 
Q 3081 -781 3186 -522 
Q 3291 -263 3291 72 
L 3291 3381 
L 2766 3381 
L 2738 3013 
Q 2678 3088 2611 3150 
Q 2544 3213 2469 3259 
Q 2331 3350 2161 3397 
Q 1991 3444 1788 3444 
Q 1472 3444 1222 3316 
Q 972 3188 797 2959 
Q 622 2731 530 2414 
Q 438 2097 438 1719 
z
M 1016 1653 
L 1016 1719 
Q 1016 1966 1067 2189 
Q 1119 2413 1231 2584 
Q 1341 2753 1514 2853 
Q 1688 2953 1931 2953 
Q 2075 2953 2194 2917 
Q 2313 2881 2409 2819 
Q 2506 2753 2581 2665 
Q 2656 2578 2713 2472 
L 2713 922 
Q 2656 813 2581 722 
Q 2506 631 2413 566 
Q 2316 500 2195 464 
Q 2075 428 1925 428 
Q 1684 428 1512 526 
Q 1341 625 1231 794 
Q 1119 963 1067 1184 
Q 1016 1406 1016 1653 
z
" transform="scale(0.015625)"/>
       <path id="RobotoMonoNFM-Rg-65" d="M 2038 -63 
Q 2531 -63 2867 135 
Q 3203 334 3372 591 
L 3019 866 
Q 2859 659 2618 534 
Q 2378 409 2069 409 
Q 1834 409 1640 496 
Q 1447 584 1309 738 
Q 1175 881 1098 1068 
Q 1022 1256 1000 1503 
L 1000 1525 
L 3416 1525 
L 3416 1784 
Q 3416 2138 3327 2441 
Q 3238 2744 3056 2969 
Q 2875 3191 2601 3317 
Q 2328 3444 1963 3444 
Q 1672 3444 1395 3325 
Q 1119 3206 903 2984 
Q 684 2759 553 2436 
Q 422 2113 422 1703 
L 422 1572 
Q 422 1219 540 919 
Q 659 619 872 400 
Q 1084 181 1382 59 
Q 1681 -63 2038 -63 
z
M 1963 2969 
Q 2184 2969 2345 2887 
Q 2506 2806 2613 2675 
Q 2719 2544 2778 2364 
Q 2838 2184 2838 2028 
L 2838 2000 
L 1019 2000 
Q 1053 2234 1139 2414 
Q 1225 2594 1350 2719 
Q 1475 2841 1631 2905 
Q 1788 2969 1963 2969 
z
" transform="scale(0.015625)"/>
       <path id="RobotoMonoNFM-Rg-74" d="M 1913 4200 
L 1331 4200 
L 1331 3381 
L 444 3381 
L 444 2934 
L 1331 2934 
L 1331 1097 
Q 1331 784 1414 564 
Q 1497 344 1641 206 
Q 1784 66 1979 1 
Q 2175 -63 2400 -63 
Q 2534 -63 2670 -50 
Q 2806 -38 2928 -13 
Q 3050 9 3153 42 
Q 3256 75 3328 119 
L 3247 528 
Q 3194 516 3111 498 
Q 3028 481 2934 466 
Q 2838 450 2738 439 
Q 2638 428 2544 428 
Q 2416 428 2302 459 
Q 2188 491 2100 569 
Q 2013 644 1963 772 
Q 1913 900 1913 1097 
L 1913 2934 
L 3200 2934 
L 3200 3381 
L 1913 3381 
L 1913 4200 
z
" transform="scale(0.015625)"/>
      </defs>
      <use xlink:href="#RobotoMonoNFM-Rg-54"/>
      <use xlink:href="#RobotoMonoNFM-Rg-61" x="60.009766"/>
      <use xlink:href="#RobotoMonoNFM-Rg-72" x="120.019531"/>
      <use xlink:href="#RobotoMonoNFM-Rg-67" x="180.029297"/>
      <use xlink:href="#RobotoMonoNFM-Rg-65" x="240.039062"/>
      <use xlink:href="#RobotoMonoNFM-Rg-74" x="300.048828"/>
     </g>
    </g>
   </g>
   <g id="matplotlib.axis_2">
    <g id="ytick_1">
     <g id="line2d_21">
      <path d="M 93.778125 607.04 
L 651.778125 607.04 
" clip-path="url(#pa0c363d259)" style="fill: none; stroke: #cccccc; stroke-opacity: 0.25; stroke-width: 0.75; stroke-linecap: round"/>
     </g>
     <g id="line2d_22">
      <defs>
       <path id="m27160e81b0" d="M 0 0 
L 8 0 
" style="stroke: #262626; stroke-width: 1.25"/>
      </defs>
      <g>
       <use xlink:href="#m27160e81b0" x="93.778125" y="607.04" style="fill: #262626; stroke: #262626; stroke-width: 1.25"/>
      </g>
     </g>
     <g id="text_4">
      <!-- 0 -->
      <g style="fill: #262626" transform="translate(78.275 614.54) scale(0.2 -0.2)">
       <use xlink:href="#RobotoMonoNFM-Rg-30"/>
      </g>
     </g>
    </g>
    <g id="ytick_2">
     <g id="line2d_23">
      <path d="M 93.778125 500.187691 
L 651.778125 500.187691 
" clip-path="url(#pa0c363d259)" style="fill: none; stroke: #cccccc; stroke-opacity: 0.25; stroke-width: 0.75; stroke-linecap: round"/>
     </g>
     <g id="line2d_24">
      <g>
       <use xlink:href="#m27160e81b0" x="93.778125" y="500.187691" style="fill: #262626; stroke: #262626; stroke-width: 1.25"/>
      </g>
     </g>
     <g id="text_5">
      <!-- 5000 -->
      <g style="fill: #262626" transform="translate(42.265625 507.687691) scale(0.2 -0.2)">
       <defs>
        <path id="RobotoMonoNFM-Rg-35" d="M 750 2281 
L 1213 2163 
Q 1291 2231 1364 2284 
Q 1438 2338 1522 2375 
Q 1606 2413 1711 2433 
Q 1816 2453 1959 2453 
Q 2178 2453 2347 2375 
Q 2516 2297 2631 2163 
Q 2747 2025 2808 1840 
Q 2869 1656 2869 1444 
Q 2869 1209 2814 1018 
Q 2759 828 2653 694 
Q 2544 556 2384 482 
Q 2225 409 2019 409 
Q 1653 409 1420 609 
Q 1188 809 1134 1197 
L 584 1197 
Q 616 881 739 643 
Q 863 406 1056 250 
Q 1247 94 1494 15 
Q 1741 -63 2019 -63 
Q 2381 -63 2650 51 
Q 2919 166 3097 369 
Q 3272 569 3359 847 
Q 3447 1125 3447 1450 
Q 3447 1794 3353 2075 
Q 3259 2356 3084 2556 
Q 2909 2753 2659 2862 
Q 2409 2972 2094 2972 
Q 1847 2972 1659 2912 
Q 1472 2853 1338 2775 
L 1466 3988 
L 3313 3988 
L 3313 4550 
L 978 4550 
L 750 2281 
z
" transform="scale(0.015625)"/>
       </defs>
       <use xlink:href="#RobotoMonoNFM-Rg-35"/>
       <use xlink:href="#RobotoMonoNFM-Rg-30" x="60.009766"/>
       <use xlink:href="#RobotoMonoNFM-Rg-30" x="120.019531"/>
       <use xlink:href="#RobotoMonoNFM-Rg-30" x="180.029297"/>
      </g>
     </g>
    </g>
    <g id="ytick_3">
     <g id="line2d_25">
      <path d="M 93.778125 393.335382 
L 651.778125 393.335382 
" clip-path="url(#pa0c363d259)" style="fill: none; stroke: #cccccc; stroke-opacity: 0.25; stroke-width: 0.75; stroke-linecap: round"/>
     </g>
     <g id="line2d_26">
      <g>
       <use xlink:href="#m27160e81b0" x="93.778125" y="393.335382" style="fill: #262626; stroke: #262626; stroke-width: 1.25"/>
      </g>
     </g>
     <g id="text_6">
      <!-- 10000 -->
      <g style="fill: #262626" transform="translate(30.2625 400.835382) scale(0.2 -0.2)">
       <use xlink:href="#RobotoMonoNFM-Rg-31"/>
       <use xlink:href="#RobotoMonoNFM-Rg-30" x="60.009766"/>
       <use xlink:href="#RobotoMonoNFM-Rg-30" x="120.019531"/>
       <use xlink:href="#RobotoMonoNFM-Rg-30" x="180.029297"/>
       <use xlink:href="#RobotoMonoNFM-Rg-30" x="240.039062"/>
      </g>
     </g>
    </g>
    <g id="ytick_4">
     <g id="line2d_27">
      <path d="M 93.778125 286.483073 
L 651.778125 286.483073 
" clip-path="url(#pa0c363d259)" style="fill: none; stroke: #cccccc; stroke-opacity: 0.25; stroke-width: 0.75; stroke-linecap: round"/>
     </g>
     <g id="line2d_28">
      <g>
       <use xlink:href="#m27160e81b0" x="93.778125" y="286.483073" style="fill: #262626; stroke: #262626; stroke-width: 1.25"/>
      </g>
     </g>
     <g id="text_7">
      <!-- 15000 -->
      <g style="fill: #262626" transform="translate(30.2625 293.983073) scale(0.2 -0.2)">
       <use xlink:href="#RobotoMonoNFM-Rg-31"/>
       <use xlink:href="#RobotoMonoNFM-Rg-35" x="60.009766"/>
       <use xlink:href="#RobotoMonoNFM-Rg-30" x="120.019531"/>
       <use xlink:href="#RobotoMonoNFM-Rg-30" x="180.029297"/>
       <use xlink:href="#RobotoMonoNFM-Rg-30" x="240.039062"/>
      </g>
     </g>
    </g>
    <g id="ytick_5">
     <g id="line2d_29">
      <path d="M 93.778125 179.630764 
L 651.778125 179.630764 
" clip-path="url(#pa0c363d259)" style="fill: none; stroke: #cccccc; stroke-opacity: 0.25; stroke-width: 0.75; stroke-linecap: round"/>
     </g>
     <g id="line2d_30">
      <g>
       <use xlink:href="#m27160e81b0" x="93.778125" y="179.630764" style="fill: #262626; stroke: #262626; stroke-width: 1.25"/>
      </g>
     </g>
     <g id="text_8">
      <!-- 20000 -->
      <g style="fill: #262626" transform="translate(30.2625 187.130764) scale(0.2 -0.2)">
       <defs>
        <path id="RobotoMonoNFM-Rg-32" d="M 3334 0 
L 3334 472 
L 1050 472 
L 2272 1797 
Q 2444 1984 2598 2173 
Q 2753 2363 2872 2556 
Q 2988 2750 3056 2948 
Q 3125 3147 3125 3350 
Q 3125 3622 3029 3853 
Q 2934 4084 2756 4253 
Q 2578 4422 2320 4517 
Q 2063 4613 1741 4613 
Q 1391 4613 1117 4500 
Q 844 4388 656 4197 
Q 466 4006 366 3751 
Q 266 3497 266 3209 
L 847 3209 
Q 847 3422 901 3594 
Q 956 3766 1069 3888 
Q 1178 4006 1345 4072 
Q 1513 4138 1741 4138 
Q 1928 4138 2076 4073 
Q 2225 4009 2331 3900 
Q 2434 3791 2489 3642 
Q 2544 3494 2544 3325 
Q 2544 3188 2509 3058 
Q 2475 2928 2394 2784 
Q 2313 2638 2178 2466 
Q 2044 2294 1844 2072 
L 353 416 
L 353 0 
L 3334 0 
z
" transform="scale(0.015625)"/>
       </defs>
       <use xlink:href="#RobotoMonoNFM-Rg-32"/>
       <use xlink:href="#RobotoMonoNFM-Rg-30" x="60.009766"/>
       <use xlink:href="#RobotoMonoNFM-Rg-30" x="120.019531"/>
       <use xlink:href="#RobotoMonoNFM-Rg-30" x="180.029297"/>
       <use xlink:href="#RobotoMonoNFM-Rg-30" x="240.039062"/>
      </g>
     </g>
    </g>
    <g id="ytick_6">
     <g id="line2d_31">
      <path d="M 93.778125 72.778455 
L 651.778125 72.778455 
" clip-path="url(#pa0c363d259)" style="fill: none; stroke: #cccccc; stroke-opacity: 0.25; stroke-width: 0.75; stroke-linecap: round"/>
     </g>
     <g id="line2d_32">
      <g>
       <use xlink:href="#m27160e81b0" x="93.778125" y="72.778455" style="fill: #262626; stroke: #262626; stroke-width: 1.25"/>
      </g>
     </g>
     <g id="text_9">
      <!-- 25000 -->
      <g style="fill: #262626" transform="translate(30.2625 80.278455) scale(0.2 -0.2)">
       <use xlink:href="#RobotoMonoNFM-Rg-32"/>
       <use xlink:href="#RobotoMonoNFM-Rg-35" x="60.009766"/>
       <use xlink:href="#RobotoMonoNFM-Rg-30" x="120.019531"/>
       <use xlink:href="#RobotoMonoNFM-Rg-30" x="180.029297"/>
       <use xlink:href="#RobotoMonoNFM-Rg-30" x="240.039062"/>
      </g>
     </g>
    </g>
    <g id="ytick_7">
     <g id="line2d_33">
      <path d="M 93.778125 585.669538 
L 651.778125 585.669538 
" clip-path="url(#pa0c363d259)" style="fill: none; stroke: #cccccc; stroke-opacity: 0.15; stroke-width: 0.25; stroke-linecap: round"/>
     </g>
     <g id="line2d_34">
      <defs>
       <path id="m0de422a351" d="M 0 0 
L 4 0 
" style="stroke: #262626"/>
      </defs>
      <g>
       <use xlink:href="#m0de422a351" x="93.778125" y="585.669538" style="fill: #262626; stroke: #262626"/>
      </g>
     </g>
    </g>
    <g id="ytick_8">
     <g id="line2d_35">
      <path d="M 93.778125 564.299076 
L 651.778125 564.299076 
" clip-path="url(#pa0c363d259)" style="fill: none; stroke: #cccccc; stroke-opacity: 0.15; stroke-width: 0.25; stroke-linecap: round"/>
     </g>
     <g id="line2d_36">
      <g>
       <use xlink:href="#m0de422a351" x="93.778125" y="564.299076" style="fill: #262626; stroke: #262626"/>
      </g>
     </g>
    </g>
    <g id="ytick_9">
     <g id="line2d_37">
      <path d="M 93.778125 542.928615 
L 651.778125 542.928615 
" clip-path="url(#pa0c363d259)" style="fill: none; stroke: #cccccc; stroke-opacity: 0.15; stroke-width: 0.25; stroke-linecap: round"/>
     </g>
     <g id="line2d_38">
      <g>
       <use xlink:href="#m0de422a351" x="93.778125" y="542.928615" style="fill: #262626; stroke: #262626"/>
      </g>
     </g>
    </g>
    <g id="ytick_10">
     <g id="line2d_39">
      <path d="M 93.778125 521.558153 
L 651.778125 521.558153 
" clip-path="url(#pa0c363d259)" style="fill: none; stroke: #cccccc; stroke-opacity: 0.15; stroke-width: 0.25; stroke-linecap: round"/>
     </g>
     <g id="line2d_40">
      <g>
       <use xlink:href="#m0de422a351" x="93.778125" y="521.558153" style="fill: #262626; stroke: #262626"/>
      </g>
     </g>
    </g>
    <g id="ytick_11">
     <g id="line2d_41">
      <path d="M 93.778125 478.817229 
L 651.778125 478.817229 
" clip-path="url(#pa0c363d259)" style="fill: none; stroke: #cccccc; stroke-opacity: 0.15; stroke-width: 0.25; stroke-linecap: round"/>
     </g>
     <g id="line2d_42">
      <g>
       <use xlink:href="#m0de422a351" x="93.778125" y="478.817229" style="fill: #262626; stroke: #262626"/>
      </g>
     </g>
    </g>
    <g id="ytick_12">
     <g id="line2d_43">
      <path d="M 93.778125 457.446767 
L 651.778125 457.446767 
" clip-path="url(#pa0c363d259)" style="fill: none; stroke: #cccccc; stroke-opacity: 0.15; stroke-width: 0.25; stroke-linecap: round"/>
     </g>
     <g id="line2d_44">
      <g>
       <use xlink:href="#m0de422a351" x="93.778125" y="457.446767" style="fill: #262626; stroke: #262626"/>
      </g>
     </g>
    </g>
    <g id="ytick_13">
     <g id="line2d_45">
      <path d="M 93.778125 436.076306 
L 651.778125 436.076306 
" clip-path="url(#pa0c363d259)" style="fill: none; stroke: #cccccc; stroke-opacity: 0.15; stroke-width: 0.25; stroke-linecap: round"/>
     </g>
     <g id="line2d_46">
      <g>
       <use xlink:href="#m0de422a351" x="93.778125" y="436.076306" style="fill: #262626; stroke: #262626"/>
      </g>
     </g>
    </g>
    <g id="ytick_14">
     <g id="line2d_47">
      <path d="M 93.778125 414.705844 
L 651.778125 414.705844 
" clip-path="url(#pa0c363d259)" style="fill: none; stroke: #cccccc; stroke-opacity: 0.15; stroke-width: 0.25; stroke-linecap: round"/>
     </g>
     <g id="line2d_48">
      <g>
       <use xlink:href="#m0de422a351" x="93.778125" y="414.705844" style="fill: #262626; stroke: #262626"/>
      </g>
     </g>
    </g>
    <g id="ytick_15">
     <g id="line2d_49">
      <path d="M 93.778125 371.96492 
L 651.778125 371.96492 
" clip-path="url(#pa0c363d259)" style="fill: none; stroke: #cccccc; stroke-opacity: 0.15; stroke-width: 0.25; stroke-linecap: round"/>
     </g>
     <g id="line2d_50">
      <g>
       <use xlink:href="#m0de422a351" x="93.778125" y="371.96492" style="fill: #262626; stroke: #262626"/>
      </g>
     </g>
    </g>
    <g id="ytick_16">
     <g id="line2d_51">
      <path d="M 93.778125 350.594458 
L 651.778125 350.594458 
" clip-path="url(#pa0c363d259)" style="fill: none; stroke: #cccccc; stroke-opacity: 0.15; stroke-width: 0.25; stroke-linecap: round"/>
     </g>
     <g id="line2d_52">
      <g>
       <use xlink:href="#m0de422a351" x="93.778125" y="350.594458" style="fill: #262626; stroke: #262626"/>
      </g>
     </g>
    </g>
    <g id="ytick_17">
     <g id="line2d_53">
      <path d="M 93.778125 329.223996 
L 651.778125 329.223996 
" clip-path="url(#pa0c363d259)" style="fill: none; stroke: #cccccc; stroke-opacity: 0.15; stroke-width: 0.25; stroke-linecap: round"/>
     </g>
     <g id="line2d_54">
      <g>
       <use xlink:href="#m0de422a351" x="93.778125" y="329.223996" style="fill: #262626; stroke: #262626"/>
      </g>
     </g>
    </g>
    <g id="ytick_18">
     <g id="line2d_55">
      <path d="M 93.778125 307.853535 
L 651.778125 307.853535 
" clip-path="url(#pa0c363d259)" style="fill: none; stroke: #cccccc; stroke-opacity: 0.15; stroke-width: 0.25; stroke-linecap: round"/>
     </g>
     <g id="line2d_56">
      <g>
       <use xlink:href="#m0de422a351" x="93.778125" y="307.853535" style="fill: #262626; stroke: #262626"/>
      </g>
     </g>
    </g>
    <g id="ytick_19">
     <g id="line2d_57">
      <path d="M 93.778125 265.112611 
L 651.778125 265.112611 
" clip-path="url(#pa0c363d259)" style="fill: none; stroke: #cccccc; stroke-opacity: 0.15; stroke-width: 0.25; stroke-linecap: round"/>
     </g>
     <g id="line2d_58">
      <g>
       <use xlink:href="#m0de422a351" x="93.778125" y="265.112611" style="fill: #262626; stroke: #262626"/>
      </g>
     </g>
    </g>
    <g id="ytick_20">
     <g id="line2d_59">
      <path d="M 93.778125 243.742149 
L 651.778125 243.742149 
" clip-path="url(#pa0c363d259)" style="fill: none; stroke: #cccccc; stroke-opacity: 0.15; stroke-width: 0.25; stroke-linecap: round"/>
     </g>
     <g id="line2d_60">
      <g>
       <use xlink:href="#m0de422a351" x="93.778125" y="243.742149" style="fill: #262626; stroke: #262626"/>
      </g>
     </g>
    </g>
    <g id="ytick_21">
     <g id="line2d_61">
      <path d="M 93.778125 222.371687 
L 651.778125 222.371687 
" clip-path="url(#pa0c363d259)" style="fill: none; stroke: #cccccc; stroke-opacity: 0.15; stroke-width: 0.25; stroke-linecap: round"/>
     </g>
     <g id="line2d_62">
      <g>
       <use xlink:href="#m0de422a351" x="93.778125" y="222.371687" style="fill: #262626; stroke: #262626"/>
      </g>
     </g>
    </g>
    <g id="ytick_22">
     <g id="line2d_63">
      <path d="M 93.778125 201.001226 
L 651.778125 201.001226 
" clip-path="url(#pa0c363d259)" style="fill: none; stroke: #cccccc; stroke-opacity: 0.15; stroke-width: 0.25; stroke-linecap: round"/>
     </g>
     <g id="line2d_64">
      <g>
       <use xlink:href="#m0de422a351" x="93.778125" y="201.001226" style="fill: #262626; stroke: #262626"/>
      </g>
     </g>
    </g>
    <g id="ytick_23">
     <g id="line2d_65">
      <path d="M 93.778125 158.260302 
L 651.778125 158.260302 
" clip-path="url(#pa0c363d259)" style="fill: none; stroke: #cccccc; stroke-opacity: 0.15; stroke-width: 0.25; stroke-linecap: round"/>
     </g>
     <g id="line2d_66">
      <g>
       <use xlink:href="#m0de422a351" x="93.778125" y="158.260302" style="fill: #262626; stroke: #262626"/>
      </g>
     </g>
    </g>
    <g id="ytick_24">
     <g id="line2d_67">
      <path d="M 93.778125 136.88984 
L 651.778125 136.88984 
" clip-path="url(#pa0c363d259)" style="fill: none; stroke: #cccccc; stroke-opacity: 0.15; stroke-width: 0.25; stroke-linecap: round"/>
     </g>
     <g id="line2d_68">
      <g>
       <use xlink:href="#m0de422a351" x="93.778125" y="136.88984" style="fill: #262626; stroke: #262626"/>
      </g>
     </g>
    </g>
    <g id="ytick_25">
     <g id="line2d_69">
      <path d="M 93.778125 115.519378 
L 651.778125 115.519378 
" clip-path="url(#pa0c363d259)" style="fill: none; stroke: #cccccc; stroke-opacity: 0.15; stroke-width: 0.25; stroke-linecap: round"/>
     </g>
     <g id="line2d_70">
      <g>
       <use xlink:href="#m0de422a351" x="93.778125" y="115.519378" style="fill: #262626; stroke: #262626"/>
      </g>
     </g>
    </g>
    <g id="ytick_26">
     <g id="line2d_71">
      <path d="M 93.778125 94.148917 
L 651.778125 94.148917 
" clip-path="url(#pa0c363d259)" style="fill: none; stroke: #cccccc; stroke-opacity: 0.15; stroke-width: 0.25; stroke-linecap: round"/>
     </g>
     <g id="line2d_72">
      <g>
       <use xlink:href="#m0de422a351" x="93.778125" y="94.148917" style="fill: #262626; stroke: #262626"/>
      </g>
     </g>
    </g>
    <g id="text_10">
     <!-- Count -->
     <g style="fill: #262626" transform="translate(22.2 359.847813) rotate(-90) scale(0.2 -0.2)">
      <defs>
       <path id="RobotoMonoNFM-Rg-43" d="M 3491 1369 
L 2913 1369 
Q 2884 1163 2815 986 
Q 2747 809 2631 681 
Q 2516 550 2348 478 
Q 2181 406 1953 406 
Q 1744 406 1587 473 
Q 1431 541 1316 659 
Q 1200 775 1125 928 
Q 1050 1081 1003 1256 
Q 956 1428 936 1608 
Q 916 1788 916 1956 
L 916 2597 
Q 916 2766 936 2945 
Q 956 3125 1003 3297 
Q 1050 3469 1126 3622 
Q 1203 3775 1319 3891 
Q 1431 4006 1589 4073 
Q 1747 4141 1953 4141 
Q 2181 4141 2348 4064 
Q 2516 3988 2631 3853 
Q 2747 3719 2815 3541 
Q 2884 3363 2913 3156 
L 3491 3156 
Q 3453 3481 3336 3750 
Q 3219 4019 3025 4213 
Q 2831 4403 2562 4508 
Q 2294 4613 1953 4613 
Q 1669 4613 1441 4533 
Q 1213 4453 1034 4313 
Q 853 4172 723 3980 
Q 594 3788 509 3563 
Q 422 3338 380 3091 
Q 338 2844 334 2591 
L 334 1956 
Q 338 1703 380 1456 
Q 422 1209 509 984 
Q 594 759 723 568 
Q 853 378 1034 238 
Q 1213 97 1442 17 
Q 1672 -63 1953 -63 
Q 2281 -63 2548 42 
Q 2816 147 3013 338 
Q 3206 525 3328 789 
Q 3450 1053 3491 1369 
z
" transform="scale(0.015625)"/>
       <path id="RobotoMonoNFM-Rg-6f" d="M 381 1722 
L 381 1653 
Q 381 1288 487 975 
Q 594 663 794 431 
Q 991 200 1277 68 
Q 1563 -63 1922 -63 
Q 2278 -63 2562 68 
Q 2847 200 3047 431 
Q 3244 663 3350 975 
Q 3456 1288 3456 1653 
L 3456 1722 
Q 3456 2088 3350 2402 
Q 3244 2716 3047 2947 
Q 2847 3178 2561 3311 
Q 2275 3444 1916 3444 
Q 1559 3444 1275 3311 
Q 991 3178 794 2947 
Q 594 2716 487 2402 
Q 381 2088 381 1722 
z
M 959 1653 
L 959 1722 
Q 959 1969 1018 2195 
Q 1078 2422 1200 2594 
Q 1319 2766 1497 2867 
Q 1675 2969 1916 2969 
Q 2156 2969 2336 2867 
Q 2516 2766 2638 2594 
Q 2756 2422 2817 2195 
Q 2878 1969 2878 1722 
L 2878 1653 
Q 2878 1403 2818 1176 
Q 2759 950 2641 778 
Q 2519 606 2339 506 
Q 2159 406 1922 406 
Q 1681 406 1500 506 
Q 1319 606 1200 778 
Q 1078 950 1018 1176 
Q 959 1403 959 1653 
z
" transform="scale(0.015625)"/>
       <path id="RobotoMonoNFM-Rg-75" d="M 2772 0 
L 3297 0 
L 3297 3381 
L 2716 3381 
L 2716 956 
Q 2669 847 2598 755 
Q 2528 663 2434 597 
Q 2322 516 2169 470 
Q 2016 425 1822 425 
Q 1656 425 1529 469 
Q 1403 513 1316 622 
Q 1228 728 1184 909 
Q 1141 1091 1141 1366 
L 1141 3381 
L 563 3381 
L 563 1372 
Q 563 994 645 723 
Q 728 453 881 278 
Q 1034 103 1250 20 
Q 1466 -63 1731 -63 
Q 2063 -63 2316 76 
Q 2569 216 2738 466 
L 2772 0 
z
" transform="scale(0.015625)"/>
       <path id="RobotoMonoNFM-Rg-6e" d="M 544 0 
L 1122 0 
L 1122 2425 
Q 1181 2534 1261 2625 
Q 1341 2716 1434 2784 
Q 1550 2863 1687 2908 
Q 1825 2953 1984 2953 
Q 2169 2953 2311 2909 
Q 2453 2866 2553 2769 
Q 2650 2672 2700 2515 
Q 2750 2359 2750 2134 
L 2750 0 
L 3328 0 
L 3328 2147 
Q 3328 2484 3245 2729 
Q 3163 2975 3009 3134 
Q 2856 3294 2639 3369 
Q 2422 3444 2156 3444 
Q 1959 3441 1782 3386 
Q 1606 3331 1456 3231 
Q 1356 3166 1267 3077 
Q 1178 2988 1103 2881 
L 1063 3381 
L 544 3381 
L 544 0 
z
" transform="scale(0.015625)"/>
      </defs>
      <use xlink:href="#RobotoMonoNFM-Rg-43"/>
      <use xlink:href="#RobotoMonoNFM-Rg-6f" x="60.009766"/>
      <use xlink:href="#RobotoMonoNFM-Rg-75" x="120.019531"/>
      <use xlink:href="#RobotoMonoNFM-Rg-6e" x="180.029297"/>
      <use xlink:href="#RobotoMonoNFM-Rg-74" x="240.039062"/>
     </g>
    </g>
   </g>
   <g id="patch_3">
    <path d="M 121.678125 607.04 
L 344.878125 607.04 
L 344.878125 79.04 
L 121.678125 79.04 
z
" clip-path="url(#pa0c363d259)" style="fill: #3c6682; stroke: #ffffff; stroke-linejoin: miter"/>
   </g>
   <g id="patch_4">
    <path d="M 400.678125 607.04 
L 623.878125 607.04 
L 623.878125 598.021665 
L 400.678125 598.021665 
z
" clip-path="url(#pa0c363d259)" style="fill: #45a778; stroke: #ffffff; stroke-linejoin: miter"/>
   </g>
   <g id="patch_5">
    <path d="M 233.278125 607.04 
L 233.278125 607.04 
L 233.278125 607.04 
L 233.278125 607.04 
z
" clip-path="url(#pa0c363d259)" style="fill: #3c6682; stroke: #ffffff; stroke-linejoin: miter"/>
   </g>
   <g id="patch_6">
    <path d="M 233.278125 607.04 
L 233.278125 607.04 
L 233.278125 607.04 
L 233.278125 607.04 
z
" clip-path="url(#pa0c363d259)" style="fill: #45a778; stroke: #ffffff; stroke-linejoin: miter"/>
   </g>
   <g id="patch_7">
    <path d="M 93.778125 607.04 
L 93.778125 52.64 
" style="fill: none; stroke: #cccccc; stroke-width: 1.25; stroke-linejoin: miter; stroke-linecap: square"/>
   </g>
   <g id="patch_8">
    <path d="M 651.778125 607.04 
L 651.778125 52.64 
" style="fill: none; stroke: #cccccc; stroke-width: 1.25; stroke-linejoin: miter; stroke-linecap: square"/>
   </g>
   <g id="patch_9">
    <path d="M 93.778125 607.04 
L 651.778125 607.04 
" style="fill: none; stroke: #cccccc; stroke-width: 1.25; stroke-linejoin: miter; stroke-linecap: square"/>
   </g>
   <g id="patch_10">
    <path d="M 93.778125 52.64 
L 651.778125 52.64 
" style="fill: none; stroke: #cccccc; stroke-width: 1.25; stroke-linejoin: miter; stroke-linecap: square"/>
   </g>
   <g id="legend_1">
    <g id="patch_11">
     <path d="M 284.775 30.2 
L 324.775 30.2 
L 324.775 16.2 
L 284.775 16.2 
z
" style="fill: #3c6682; stroke: #ffffff; stroke-linejoin: miter"/>
    </g>
    <g id="text_11">
     <!-- 0 -->
     <g style="fill: #262626" transform="translate(340.775 30.2) scale(0.2 -0.2)">
      <use xlink:href="#RobotoMonoNFM-Rg-30"/>
     </g>
    </g>
    <g id="patch_12">
     <path d="M 392.778125 30.2 
L 432.778125 30.2 
L 432.778125 16.2 
L 392.778125 16.2 
z
" style="fill: #45a778; stroke: #ffffff; stroke-linejoin: miter"/>
    </g>
    <g id="text_12">
     <!-- 1 -->
     <g style="fill: #262626" transform="translate(448.778125 30.2) scale(0.2 -0.2)">
      <use xlink:href="#RobotoMonoNFM-Rg-31"/>
     </g>
    </g>
   </g>
  </g>
 </g>
 <defs>
  <clipPath id="pa0c363d259">
   <rect x="93.778125" y="52.64" width="558" height="554.4"/>
  </clipPath>
 </defs>
</svg>
